<svg data-v-0dd9719b="" version="1.0" xmlns="http://www.w3.org/2000/svg" xmlns:xlink="http://www.w3.org/1999/xlink" width="100%" height="100%" viewBox="0 0 340.000000 250.000000" preserveAspectRatio="xMidYMid meet" color-interpolation-filters="sRGB" style="margin: auto;"> <rect data-v-0dd9719b="" x="0" y="0" width="100%" height="100%" fill="#fff" fill-opacity="1" class="background"></rect> <rect data-v-0dd9719b="" x="0" y="0" width="100%" height="100%" fill="url(#watermark)" fill-opacity="1" class="watermarklayer"></rect> <g data-v-0dd9719b="" fill="#3e3a39" class="icon-text-wrapper icon-svg-group iconsvg" transform="translate(60.16999816894531,93.5097599029541)"><g class="iconsvg-imagesvg" transform="translate(0,0)"><g><rect fill="#3e3a39" fill-opacity="0" stroke-width="2" x="0" y="0" width="63" height="62.98047605242375" class="image-rect"></rect> <svg x="0" y="0" width="63" height="62.98047605242375" filtersec="colorsb9568493565" class="image-svg-svg primary" style="overflow: visible;"><svg xmlns="http://www.w3.org/2000/svg" viewBox="0 0 655.9200439453125 655.719970703125"><path fill="#3e3a39" d="M341.54 128.33h186.03v185.96h-80.81V209.11H341.54v-80.78zM314.39 527.38H128.37V341.43h80.82V446.6h105.2v80.78z"></path><path d="M129.08 313.44C136.16 215.62 215.7 136.1 313.55 129v81c-53.47 6.68-96.79 50-103.53 103.44zm397.89 28.82c-7.16 98-86.47 177.35-184.54 184.49v-81c53.65-6.72 96.79-49.85 103.53-103.5z" fill="#009fe8"></path><path d="M279.67 279.58a68.29 68.29 0 1 1 0 96.55 68.23 68.23 0 0 1 0-96.55z" fill="#3e3a39" fill-rule="evenodd"></path><path d="M95.97 95.92A326.72 326.72 0 0 1 313.55 0v81.62A246.35 246.35 0 0 0 81.66 313.44H0A326.59 326.59 0 0 1 96 95.92zm559.95 246.34a327.89 327.89 0 0 1-313.54 313.46v-81.44a247.09 247.09 0 0 0 232.09-232z" fill="#87d0f4" fill-rule="evenodd"></path></svg></svg> <!----></g></g> <g transform="translate(70,6.041177749633789)"><g data-gra="path-name" fill-rule="" class="tp-name iconsvg-namesvg" transform="translate(0,0)"><g transform="scale(1)"><g><path d="M17.22-27.42L17.22-21.34 19.52-21.34 19.52-27.42 17.22-27.42ZM29.21-12.58L29.21-20.3 24.6-20.3 24.6-13.77Q24.6-13.14 24.97-13.14L24.97-13.14 25.68-13.14Q26.16-13.14 26.38-13.43L26.38-13.43Q26.87-14.03 27.79-16.74L27.79-16.74 28.17-16.74 28.31-13.29Q28.95-12.95 29.21-12.58L29.21-12.58ZM8.65-5.49L8.65-1.67 29.21-1.67 29.21-9.76Q28.28-8.28 24.6-8.28L24.6-8.28 23.08-8.28Q20.78-8.28 20.15-9.11 19.52-9.95 19.52-12.36L19.52-12.36 19.52-20.3 17.22-20.3Q17.22-18.59 17.07-17.22 16.92-15.85 16.4-14.06 15.88-12.28 15.01-10.87 14.14-9.46 12.52-8 10.91-6.53 8.68-5.46L8.68-5.46 8.65-5.49ZM12.1-20.3L12.1-20.3 8.65-20.3 8.65-6.12Q10.76-8.94 11.43-12.39 12.1-15.85 12.1-20.3ZM35.81-27.42L24.6-27.42 24.6-21.34 29.02-21.34 31.69-24.42 36.44-20.67Q36-20.04 34.85-19.82L34.85-19.82 34.85 1.86Q34.85 2 34.31 2.34 33.77 2.67 32.64 2.97 31.51 3.27 30.21 3.27L30.21 3.27 29.21 3.27 29.21-0.59 8.65-0.59 8.65 2.08Q8.65 2.26 8.16 2.56 7.68 2.86 6.62 3.14 5.57 3.41 4.3 3.41L4.3 3.41 3.3 3.41 3.3-23.49 9.13-21.34 12.1-21.34 12.1-27.42 1.6-27.42 1.3-28.5 28.39-28.5 31.43-32.25Q34.85-29.76 36.92-28.05L36.92-28.05Q36.74-27.42 35.81-27.42L35.81-27.42ZM67.8-25.2L67.8-25.2 45.79-25.2Q46.28-21.23 43.97-19.56L43.97-19.56Q42.94-18.74 41.56-19.15 40.19-19.56 39.71-20.86L39.71-20.86Q39.3-22.04 39.84-23.04 40.38-24.05 41.49-24.6L41.49-24.6Q42.53-25.23 43.36-26.61 44.2-27.98 44.09-29.43L44.09-29.43 44.49-29.43Q45.38-27.42 45.61-26.27L45.61-26.27 54.07-26.27 54.07-32.51 61.16-31.99Q61.08-31.13 59.78-30.91L59.78-30.91 59.78-26.27 67.58-26.27 70.25-28.91 74.85-24.6Q74.44-24.12 73.37-24.08L73.37-24.08Q70.25-21.45 66.31-19.59L66.31-19.59 66.05-19.85Q67.17-22.67 67.8-25.2ZM61.08-15.88L61.08-15.88 55.11-15.88Q53.77-12.51 51.92-8.16L51.92-8.16Q54.96-8.02 58.04-7.57L58.04-7.57Q60.27-10.98 61.08-15.88ZM55.55-16.96L67.24-16.96 69.95-20.52Q73.03-18.11 74.85-16.48L74.85-16.48Q74.7-15.88 73.77-15.88L73.77-15.88 67.17-15.88Q65.79-9.83 63.53-6.38L63.53-6.38Q70.4-4.42 72.25-0.96L72.25-0.96Q73.37 1.11 72.18 2.56L72.18 2.56Q71.06 3.93 69.02 3.41L69.02 3.41Q68.65 3.3 68.32 3.15L68.32 3.15Q65.42 0.19 60.3-2.82L60.3-2.82Q57.15-0.26 52.1 1.26 47.05 2.78 39.19 3.53L39.19 3.53 39.04 3.04Q51.1 0.22 56.07-5.08L56.07-5.08Q53.36-6.38 51.4-7.09L51.4-7.09Q50.77-5.71 50.28-4.64L50.28-4.64Q49.39-4.19 47.7-4.27 46.02-4.34 44.42-5.01L44.42-5.01Q46.54-9.2 49.21-15.88L49.21-15.88 39.6-15.88 39.3-16.96 49.62-16.96Q51.58-22.04 52.14-24.31L52.14-24.31 59.12-23.04Q58.93-22.12 57.48-22.08L57.48-22.08Q56.29-18.81 55.55-16.96L55.55-16.96ZM108.14-27.2L108.14-27.2 81.38-27.2 81.08-28.28 100.57-28.28 103.61-32.21Q107.17-29.61 109.25-27.83L109.25-27.83Q109.06-27.2 108.14-27.2ZM77.34-18.11L103.91-18.11 107.06-22.19Q110.66-19.48 112.78-17.66L112.78-17.66Q112.63-17.07 111.66-17.07L111.66-17.07 97.04-17.07Q92.48-9.24 87.95-3.82L87.95-3.82Q93.33-4.08 103.05-4.82L103.05-4.82Q101.05-8.87 98.38-12.21L98.38-12.21 98.71-12.43Q107.17-9.65 110.25-4.56L110.25-4.56Q112.22-1.34 111.29 1.3L111.29 1.3Q110.62 3.27 108.84 3.49L108.84 3.49Q107.36 3.64 105.72 2.41L105.72 2.41Q105.17-0.26 103.68-3.45L103.68-3.45Q96.34-0.96 82.2 2.15L82.2 2.15Q81.71 2.86 80.97 3.04L80.97 3.04 78.19-3.45Q81.86-3.53 85.76-3.71L85.76-3.71Q88.1-10.69 89.25-17.07L89.25-17.07 77.63-17.07 77.34-18.11ZM134.86-18.63L134.86-18.63 134.86-26.5 132.04-26.5 132.04-23.19Q132.04-20.19 131-18.18L131-18.18Q131.11-18.18 132.5-18.11 133.89-18.04 134.22-18.04L134.22-18.04Q134.86-18.04 134.86-18.63ZM126.91-23.16L126.91-26.5 115.89-26.5 115.6-27.54 130.29-27.54 130.29-32.54 137.19-32.03Q137.08-31.17 135.82-30.99L135.82-30.99 135.82-27.54 143.21-27.54 145.8-30.73Q148.73-28.61 150.55-27.09L150.55-27.09Q150.4-26.5 149.44-26.5L149.44-26.5 140.05-26.5 140.05-18.55Q140.05-15.77 138.9-14.44 137.75-13.1 134.11-12.84L134.11-12.84Q134.04-15.29 133.52-16.22L133.52-16.22Q132.74-17.4 130.96-17.74L130.96-17.74 130.96-18.11Q128.06-12.62 116.82-10.43L116.82-10.43 116.63-10.8Q119.23-11.8 121.13-13.03 123.02-14.25 124.11-15.42 125.21-16.59 125.86-18 126.51-19.41 126.71-20.58 126.91-21.75 126.91-23.16L126.91-23.16ZM140.68-23.64L140.68-23.64 140.94-23.86Q147.58-23.82 149.85-20.82L149.85-20.82Q151.18-19.04 150.33-17.29L150.33-17.29Q149.55-15.73 147.81-15.77L147.81-15.77Q146.99-15.81 146.17-16.25L146.17-16.25Q145.43-18.22 143.89-20.24 142.35-22.27 140.68-23.64ZM120.98-25.2L120.98-25.2 126.65-22.3Q126.32-21.63 125.21-21.78L125.21-21.78Q121.64-17.33 115.93-15.18L115.93-15.18 115.63-15.55Q117.41-17.37 118.84-20.08 120.27-22.79 120.98-25.2ZM149.66-7.09L149.66-7.09 135.08-7.09Q138.94-2.41 150.96-2L150.96-2 150.96-1.6Q147.84-0.56 147.1 3.6L147.1 3.6Q141.98 2.19 138.92-0.19 135.86-2.56 134.26-7.09L134.26-7.09 134.08-7.09Q133.48-5.08 132.41-3.58 131.33-2.08 129.23-0.69 127.14 0.71 123.67 1.78 120.2 2.86 115.19 3.64L115.19 3.64 114.96 3.08Q121.35 1 124.32-1.41 127.29-3.82 128.25-7.09L128.25-7.09 115.74-7.09 115.45-8.16 128.51-8.16Q128.84-9.95 128.99-13.14L128.99-13.14 136.19-12.65Q136.04-11.73 134.86-11.58L134.86-11.58Q134.6-9.39 134.34-8.16L134.34-8.16 143.06-8.16 145.8-11.69Q148.88-9.35 150.74-7.72L150.74-7.72Q150.55-7.09 149.66-7.09Z" transform="translate(-1.2999999523162842, 32.540000915527344)"></path></g> <!----> <!----> <!----> <!----> <!----> <!----> <!----></g></g> <g data-gra="path-slogan" fill-rule="" class="tp-slogan iconsvg-slogansvg" fill="#3E3A39" transform="translate(5,43.18000030517578)"><rect x="0" height="1" y="3.8600001335144043" width="27.490001678466797"></rect> <rect height="1" y="3.8600001335144043" width="27.490001678466797" x="112.17000198364258"></rect> <g transform="translate(30.490001678466797,0)"><g transform="scale(1)"><path d="M7.64-8.58L4.73-4.41L7.78 0L6.33 0L3.98-3.52L1.64 0L0.23 0L3.33-4.41L0.42-8.58L1.88-8.58L4.03-5.30L6.23-8.58L7.64-8.58ZM10.05-8.58L11.22-8.58L11.22 0L10.05 0L10.05-8.58ZM14.89-5.53L14-5.53L14-8.58L14.89-8.58L14.89-5.53ZM23.11 0L22.27-2.48L18.80-2.48L17.91 0L16.73 0L19.97-8.58L21.28-8.58L24.38 0L23.11 0ZM20.53-7.31L19.17-3.52L21.84-3.52L20.58-7.31L20.53-7.31ZM27.81-8.58L32.13-1.64L32.13-8.58L33.25-8.58L33.25 0L31.94 0L27.58-6.94L27.53-6.94L27.53 0L26.41 0L26.41-8.58L27.81-8.58ZM47.30-8.58L44.06-3.47L44.06 0L42.89 0L42.89-3.47L39.66-8.58L41.02-8.58L43.45-4.45L45.94-8.58L47.30-8.58ZM55-3.19L55-8.58L56.17-8.58L56.17-3.05Q56.03 0.05 52.66 0.14L52.66 0.14Q49.52 0.05 49.38-2.86L49.38-2.86L49.38-8.58L50.55-8.58L50.55-3.19Q50.59-0.84 52.70-0.80L52.70-0.80Q55-0.84 55-3.19L55-3.19ZM60.36-8.58L64.67-1.64L64.67-8.58L65.80-8.58L65.80 0L64.48 0L60.13-6.94L60.08-6.94L60.08 0L58.95 0L58.95-8.58L60.36-8.58ZM75.52-8.58L72.28-3.47L72.28 0L71.11 0L71.11-3.47L67.88-8.58L69.23-8.58L71.67-4.45L74.16-8.58L75.52-8.58ZM77.73-8.58L78.91-8.58L78.91 0L77.73 0L77.73-8.58Z" transform="translate(-0.234375, 8.578125)"></path></g></g></g></g></g><defs v-gra="od"></defs></svg>